<svg viewBox="0 0 402 80" fill="none" xmlns="http://www.w3.org/2000/svg" stroke="currentColor">
<path fill="currentColor" d="M135.104 62.434C132.252 62.434 129.731 61.938 127.54 60.946C125.391 59.954 123.696 58.5693 122.456 56.792C121.216 55.0147 120.555 53.0307 120.472 50.84H125.06C125.267 52.948 126.197 54.808 127.85 56.42C129.503 57.9907 131.921 58.776 135.104 58.776C138.039 58.776 140.353 58.032 142.048 56.544C143.784 55.0147 144.652 53.0927 144.652 50.778C144.652 48.918 144.177 47.43 143.226 46.314C142.275 45.1567 141.097 44.3093 139.692 43.772C138.287 43.1933 136.344 42.5733 133.864 41.912C130.971 41.1267 128.677 40.362 126.982 39.618C125.287 38.874 123.841 37.7167 122.642 36.146C121.443 34.5753 120.844 32.4467 120.844 29.76C120.844 27.528 121.423 25.544 122.58 23.808C123.737 22.0307 125.37 20.646 127.478 19.654C129.586 18.662 132.004 18.166 134.732 18.166C138.741 18.166 141.965 19.158 144.404 21.142C146.884 23.0847 148.31 25.606 148.682 28.706H143.97C143.681 26.9287 142.709 25.358 141.056 23.994C139.403 22.5887 137.171 21.886 134.36 21.886C131.756 21.886 129.586 22.5887 127.85 23.994C126.114 25.358 125.246 27.2387 125.246 29.636C125.246 31.4547 125.721 32.922 126.672 34.038C127.623 35.154 128.801 36.0013 130.206 36.58C131.653 37.1587 133.595 37.7787 136.034 38.44C138.845 39.2253 141.118 40.0107 142.854 40.796C144.59 41.54 146.057 42.6973 147.256 44.268C148.455 45.8387 149.054 47.9467 149.054 50.592C149.054 52.6173 148.517 54.5393 147.442 56.358C146.367 58.1767 144.776 59.644 142.668 60.76C140.56 61.876 138.039 62.434 135.104 62.434ZM159.61 21.762C158.742 21.762 157.998 21.452 157.378 20.832C156.758 20.212 156.448 19.4473 156.448 18.538C156.448 17.6287 156.758 16.8847 157.378 16.306C157.998 15.686 158.742 15.376 159.61 15.376C160.478 15.376 161.222 15.686 161.842 16.306C162.462 16.8847 162.772 17.6287 162.772 18.538C162.772 19.4473 162.462 20.212 161.842 20.832C161.222 21.452 160.478 21.762 159.61 21.762ZM161.78 28.148V62H157.44V28.148H161.78ZM211.908 27.528C215.876 27.528 219.1 28.7887 221.58 31.31C224.102 33.79 225.362 37.4067 225.362 42.16V62H221.084V42.656C221.084 38.9773 220.196 36.1667 218.418 34.224C216.641 32.2813 214.223 31.31 211.164 31.31C207.982 31.31 205.44 32.364 203.538 34.472C201.637 36.58 200.686 39.6387 200.686 43.648V62H196.408V42.656C196.408 38.9773 195.52 36.1667 193.742 34.224C191.965 32.2813 189.526 31.31 186.426 31.31C183.244 31.31 180.702 32.364 178.8 34.472C176.899 36.58 175.948 39.6387 175.948 43.648V62H171.608V28.148H175.948V33.976C177.023 31.868 178.552 30.2767 180.536 29.202C182.52 28.086 184.732 27.528 187.17 27.528C190.105 27.528 192.668 28.2307 194.858 29.636C197.09 31.0413 198.702 33.108 199.694 35.836C200.604 33.1493 202.154 31.1033 204.344 29.698C206.576 28.2513 209.098 27.528 211.908 27.528ZM239.279 35.588C240.354 33.3147 242.048 31.434 244.363 29.946C246.719 28.4167 249.509 27.652 252.733 27.652C255.792 27.652 258.54 28.3753 260.979 29.822C263.459 31.2273 265.381 33.2527 266.745 35.898C268.15 38.502 268.853 41.54 268.853 45.012C268.853 48.484 268.15 51.5427 266.745 54.188C265.381 56.8333 263.459 58.8793 260.979 60.326C258.54 61.7727 255.792 62.496 252.733 62.496C249.55 62.496 246.781 61.752 244.425 60.264C242.069 58.7347 240.354 56.8333 239.279 54.56V77.996H235.001V28.148H239.279V35.588ZM264.451 45.012C264.451 42.2013 263.893 39.7833 262.777 37.758C261.702 35.6913 260.214 34.1207 258.313 33.046C256.412 31.9713 254.262 31.434 251.865 31.434C249.55 31.434 247.422 31.992 245.479 33.108C243.578 34.224 242.069 35.8153 240.953 37.882C239.837 39.9487 239.279 42.346 239.279 45.074C239.279 47.802 239.837 50.1993 240.953 52.266C242.069 54.3327 243.578 55.924 245.479 57.04C247.422 58.156 249.55 58.714 251.865 58.714C254.262 58.714 256.412 58.1767 258.313 57.102C260.214 55.986 261.702 54.3947 262.777 52.328C263.893 50.22 264.451 47.7813 264.451 45.012ZM281.179 16.12V62H276.839V16.12H281.179ZM321.635 43.338C321.635 44.826 321.594 45.9627 321.511 46.748H293.425C293.549 49.3107 294.169 51.5013 295.285 53.32C296.401 55.1387 297.868 56.5233 299.687 57.474C301.506 58.3833 303.49 58.838 305.639 58.838C308.45 58.838 310.806 58.156 312.707 56.792C314.65 55.428 315.931 53.5887 316.551 51.274H321.139C320.312 54.5807 318.535 57.288 315.807 59.396C313.12 61.4627 309.731 62.496 305.639 62.496C302.456 62.496 299.604 61.7933 297.083 60.388C294.562 58.9413 292.578 56.916 291.131 54.312C289.726 51.6667 289.023 48.5873 289.023 45.074C289.023 41.5607 289.726 38.4813 291.131 35.836C292.536 33.1907 294.5 31.1653 297.021 29.76C299.542 28.3547 302.415 27.652 305.639 27.652C308.863 27.652 311.674 28.3547 314.071 29.76C316.51 31.1653 318.37 33.0667 319.651 35.464C320.974 37.82 321.635 40.4447 321.635 43.338ZM317.233 43.214C317.274 40.6927 316.758 38.5433 315.683 36.766C314.65 34.9887 313.224 33.6453 311.405 32.736C309.586 31.8267 307.602 31.372 305.453 31.372C302.229 31.372 299.48 32.4053 297.207 34.472C294.934 36.5387 293.673 39.4527 293.425 43.214H317.233ZM333.729 18.662V45.942C333.729 50.2407 334.742 53.4233 336.767 55.49C338.834 57.5567 341.645 58.59 345.199 58.59C348.754 58.59 351.523 57.5773 353.507 55.552C355.533 53.4853 356.545 50.282 356.545 45.942V18.662H360.885V45.88C360.885 51.3773 359.418 55.5107 356.483 58.28C353.59 61.0493 349.808 62.434 345.137 62.434C340.467 62.434 336.664 61.0493 333.729 58.28C330.836 55.5107 329.389 51.3773 329.389 45.88V18.662H333.729ZM386.189 40.362L399.333 62H394.497L383.461 43.896L372.983 62H368.147L381.229 40.176L368.147 18.662H372.983L383.957 36.704L394.559 18.662H399.395L386.189 40.362Z" />
<path d="M47 28.5V12C47 8.68629 44.3137 6 41 6H8C4.68629 6 2 8.68629 2 12V45C2 48.3137 4.68629 51 8 51H24.5"  stroke-width="3" stroke-linejoin="round"/>
<path d="M43.2607 39.8607L67.818 15.3033C70.6529 12.4685 75.5 14.4762 75.5 18.4853V70C75.5 72.4853 73.4853 74.5 71 74.5H19.4853C15.4762 74.5 13.4685 69.6529 16.3033 66.818L43.2607 39.8607Z"  stroke-width="3" stroke-linejoin="round"/>
</svg>
